<svg width="397" height="87" viewBox="0 0 397 87" fill="none" xmlns="http://www.w3.org/2000/svg">
<path d="M86.09 0H0V86.08H86.09V0Z" fill="white"/>
<path fill-rule="evenodd" clip-rule="evenodd" d="M3.00999 2.97003H15.57C15.54 8.32003 16.09 12.9 16.51 17.67C16.59 18.52 16.71 19.34 16.68 20.16C16.65 20.96 16.43 21.73 16.43 22.56C16.43 24.17 17.29 25.24 17.51 26.62C17.85 28.79 17.62 31.08 17.76 33.25C18.03 37.47 19.47 40.86 20.75 44.19C21.42 45.94 21.74 47.77 22.24 49.66C22.73 51.51 23.27 53.25 23.98 54.88C25.28 57.86 27.39 60.86 29.2 63.59C30.15 65.02 30.92 66.51 32.1 67.65C33.11 68.63 34.57 69.44 35.58 70.55C37.17 72.3 38.14 75.17 40.31 76.44C41.34 77.04 42.95 77.5 44.45 77.44C46.14 77.36 47.77 76.37 49.18 76.03C50.79 75.64 52.15 75.71 52.83 74.7C53.31 73.99 53.43 72.22 53.16 71.38C52.28 68.63 47.1 70.01 43.7 69.72C41.34 69.52 40.13 69.65 39.81 67.48C39.7 66.77 39.62 65.7 40.14 65.32C40.89 64.77 42.35 65.12 43.79 64.99C45.82 64.79 47.84 64.46 49.26 63.66C49.84 63.34 50.56 62.91 50.92 62.5C51.16 62.22 51.98 61.01 51.83 60.34C51.59 59.22 47.47 58.61 45.69 58.93C44.5 59.15 43.99 59.93 43.04 60.01C41.6 60.14 40.14 59.15 38.31 59.76C38.08 59.84 37.83 59.99 37.65 60.09C36.52 60.74 36.24 62.34 35.16 62.66C34.13 62.97 32.56 62.46 32.09 62.16C31.08 61.51 29.6 57.81 31.01 56.52C31.3 56.25 31.66 56.28 31.92 55.86C32.47 54.98 32.6 53.14 33.49 52.46C34.01 52.07 35.06 52.14 35.9 51.71C36.45 51.43 37.33 50.5201 37.56 49.8C37.77 49.15 37.88 47.9 37.56 47.31C37.21 46.68 35.21 46.99 35.24 45.98C35.26 45.08 37.36 45.32 38.06 44.9C39.05 44.31 38.8 43.17 39.64 42.25C40.15 41.68 41.61 41.05 42.54 40.92C43.91 40.73 45.13 41.13 45.69 40.51C46.4 39.73 45.93 38.24 45.36 37.52C44.7 36.69 43.57 36.42 43.29 35.61C42.95 34.62 43.21 33.06 43.21 31.88C43.21 28.42 42.59 24.82 41.14 22.51C40.82 22.01 40.28 21.6 39.73 21.18C39.42 20.95 38.53 20.34 38.57 19.6C38.6 19.01 39.1 18.85 39.73 18.44C41.18 17.48 42.87 15.7 42.88 13.3C42.88 12.83 42.63 12.26 42.72 11.97C42.82 11.63 44.28 10.74 44.88 10.31C45.75 9.67 46.5 9.30002 47.2 8.90002C50.6 6.95002 53.22 5.55001 57.48 4.26001C59.41 3.67001 63.02 2.91003 63.02 2.91003H83.09V83.06H3.00999V2.92004V2.97003ZM53.66 12.69C53.18 13.11 50.42 15.11 51.17 16.17C51.54 16.69 53.48 16.07 54.41 15.84C56.65 15.27 58.76 14.69 60.79 14.1C61.91 13.78 63.52 13.61 63.69 12.86C63.83 12.27 62.18 11.02 61.37 10.54C60.4 9.96004 59.19 9.54 58.3 9.63C56.29 9.83 55.1 11.44 53.66 12.7V12.69ZM52.66 22.14C52.2 23.21 51.37 23.51 51.25 24.62C51.04 26.54 52.64 27.09 52.91 28.52C53.1 29.53 52.48 30.53 52.41 31.34C52.1 35.28 57.16 37.1301 58.05 39.05C58.18 39.33 58.32 39.68 58.3 40.04C58.2 41.65 56.74 40.62 55.73 41.12C55.05 41.45 55.12 42.27 54.48 43.36C53.91 44.33 52.43 44.91 52.49 45.85C52.53 46.45 53.75 47.21 53.98 47.34C55.02 47.94 56.6 48.42 58.13 48.92C61 49.85 63.04 49.95 64.02 52.65C64.35 53.58 64.49 55.41 65.68 55.39C66.55 55.37 67.07 54.1 67.34 53.15C68.7 48.33 68.42 43.04 68.92 36.98C69.3 32.31 71.91 29.04 71.91 25.2C71.91 23.74 71.26 22.35 70.58 21.88C69.01 20.79 65.27 21.02 63.2 21.55C62.56 21.71 61.28 22.56 60.79 21.96C60.32 21.38 61.59 20.55 61.04 20.14C60.75 19.92 60.24 20.32 60.29 20.31C59.8 20.45 59.14 20.58 58.55 20.47C57.6 20.3 57 19.01 56.56 18.81C56.02 18.57 54.03 18.75 53.91 18.81C52.98 19.23 53.14 21.03 52.67 22.13L52.66 22.14ZM48.44 38.89C47.98 39.67 47.32 41.26 47.86 42.05C48.43 42.8801 50.67 42.6 51.59 42.13C53.9 40.95 53.76 36.67 51.18 36.74C49.86 36.78 49.09 37.81 48.45 38.89H48.44ZM36.83 55.31C36.16 55.9 35.14 57.66 36.58 56.97C37.2 56.67 38.05 55.98 38.57 55.89C40.31 55.58 41.13 56.8 42.72 56.39C43.37 56.22 43.77 55.54 44.38 55.23C44.68 55.08 45.07 54.91 45.46 54.81C46.12 54.65 48.1 54.88 48.28 54.4C48.49 53.85 46.95 53.45 46.54 53.32C45.25 52.91 44.39 52.73 43.22 52.82C40.71 53.02 38.41 53.93 36.84 55.31H36.83Z" fill="#231F20"/>
<path fill-rule="evenodd" clip-rule="evenodd" d="M24.73 16.15C26.54 15.92 28.81 16.44 30.2 17.15C31.42 17.77 32.35 18.63 32.35 20.39C32.35 21.01 32.23 21.83 32.27 22.63C32.3 23.4 32.49 24.22 32.35 24.79C32.06 25.96 29.45 27.85 27.46 27.61C26.11 27.45 25.18 25.91 24.23 25.87C23.79 25.85 22.89 26.45 22.32 26.7C21.88 26.89 20.61 27.4 20.33 26.62C20.15 26.11 21.08 24.42 21.33 24.21C22.43 23.3 25.27 23.68 25.48 22.3C25.81 20.12 21.51 20.96 21.17 19.73C20.95 18.93 22.01 18.55 22.5 17.99C23.27 17.1 23.29 16.35 24.74 16.16L24.73 16.15Z" fill="black"/>
<path fill-rule="evenodd" clip-rule="evenodd" d="M33.02 43.35C34.32 43.05 33.48 45.23 33.1 46.09C32.74 46.9 32.35 47.7 31.77 47.75C31.37 47.79 30.86 47.48 30.77 47.09C30.63 46.37 32.4 43.5 33.01 43.36L33.02 43.35Z" fill="black"/>
<path d="M98.15 23.45H106.71V39.58L121.8 23.45H133L115.71 41.51L134.48 62.3H122.51L106.71 43.87V62.3H98.15V23.45Z" fill="white"/>
<path d="M141.18 22.46C143.81 22.46 145.95 24.6 145.95 27.24C145.95 29.88 143.81 32.01 141.18 32.01C138.55 32.01 136.41 29.87 136.41 27.24C136.41 24.61 138.55 22.46 141.18 22.46ZM137.06 35.64H145.29V62.31H137.06V35.64Z" fill="white"/>
<path d="M149.57 35.64H157.47V39.26H157.58C158.68 37.18 161.37 34.98 165.37 34.98C173.71 34.98 175.25 40.47 175.25 47.6V62.31H167.02V49.25C167.02 46.17 166.96 42.22 162.74 42.22C158.52 42.22 157.8 45.57 157.8 49.02V62.3H149.57V35.63V35.64Z" fill="white"/>
<path d="M207.19 59.97C207.19 70.01 202.09 75.39 191.77 75.39C187.05 75.39 182.22 74.57 178.38 71.49L182.93 64.69C185.45 66.83 188.25 68.14 191.6 68.14C196.59 68.14 198.95 65.4 198.95 61.61V59.03H198.84C196.97 61.61 193.79 62.54 191.32 62.54C183.42 62.54 178.21 56.84 178.21 48.77C178.21 41.69 182.82 34.89 190.39 34.89C195.05 34.89 198.23 37.14 199.49 39.06H199.6V35.55H207.17V59.97H207.19ZM193.03 55.31C196.76 55.31 199.61 52.18 199.61 48.72C199.61 45.26 196.76 42.14 193.03 42.14C189.3 42.14 186.45 45.27 186.45 48.72C186.45 52.17 189.3 55.31 193.03 55.31Z" fill="white"/>
<path d="M246.03 33.47C244.33 31.44 241.86 30.29 238.68 30.29C232.21 30.29 227.43 35.56 227.43 42.8C227.43 50.04 232.2 55.31 238.4 55.31C241.86 55.31 244.65 53.77 246.4 51.14L253.53 56.47C250.29 61.08 244.81 63.22 239.49 63.22C227.37 63.22 218.53 55.27 218.53 42.81C218.53 30.35 227.36 22.4 239.49 22.4C243.82 22.4 249.3 23.89 252.6 28.11L246.02 33.49L246.03 33.47Z" fill="white"/>
<path d="M268.58 34.89C276.81 34.89 283.39 40.38 283.39 48.88C283.39 57.38 276.81 62.88 268.58 62.88C260.35 62.88 253.77 57.39 253.77 48.88C253.77 40.37 260.35 34.89 268.58 34.89ZM268.58 55.63C272.7 55.63 275.17 52.89 275.17 48.88C275.17 44.87 272.7 42.13 268.58 42.13C264.46 42.13 262 44.88 262 48.88C262 52.88 264.47 55.63 268.58 55.63Z" fill="white"/>
<path d="M311.49 62.22H303.59V58.6H303.48C302.38 60.69 299.69 62.88 295.69 62.88C287.35 62.88 285.81 57.39 285.81 50.26V35.55H294.04V48.61C294.04 51.68 294.09 55.63 298.32 55.63C302.55 55.63 303.26 52.28 303.26 48.82V35.55H311.49V62.22Z" fill="white"/>
<path d="M315.78 35.57H323.68V39.19H323.79C324.89 37.1 327.58 34.91 331.58 34.91C339.92 34.91 341.46 40.4 341.46 47.53V62.23H333.23V49.17C333.23 46.1 333.18 42.14 328.95 42.14C324.72 42.14 324.01 45.49 324.01 48.95V62.23H315.78V35.56V35.57Z" fill="white"/>
<path d="M363.8 41.8H356.55V50.69C356.55 53.54 356.88 55.63 360.45 55.63C361.33 55.63 363.08 55.52 363.8 54.87V61.73C361.99 62.39 359.96 62.55 358.04 62.55C352.55 62.55 348.33 60.3 348.33 54.48V41.81H343.06V35.23H348.33V27.33H356.56V35.23H363.81V41.81L363.8 41.8Z" fill="white"/>
<path d="M384.43 66.33C382.24 71.98 380.97 75.16 373.13 75.16C371.04 75.16 368.96 74.83 366.98 74.17L368.08 67.42C369.34 67.97 370.55 68.24 371.92 68.24C375.65 68.24 376.25 66.65 377.41 63.74L378.01 62.2L366.32 35.31H375.21L382.07 52.92H382.18L388.05 35.31H396.5L384.43 66.31V66.33Z" fill="white"/>
</svg>
